<?xml version="1.0" encoding="utf-8"?>
<!-- Generator: Adobe Illustrator 26.0.1, SVG Export Plug-In . SVG Version: 6.00 Build 0)  -->
<svg version="1.1" id="Laag_1" xmlns="http://www.w3.org/2000/svg" xmlns:xlink="http://www.w3.org/1999/xlink" x="0px" y="0px"
	 viewBox="0 0 32 32" style="enable-background:new 0 0 32 32;" xml:space="preserve">
<style type="text/css">
	.st0{display:none;}
	.st1{display:inline;fill:#FFFFFF;}
	.st2{fill:#FE6F4D;}
	.st3{fill:#775257;}
	.st4{fill:#997D81;}
	.st5{fill:#9D8386;}
	.st6{fill:#B29DA0;}
	.st7{fill:#FE8E71;}
	.st8{fill:#FEF0D3;}
	.st9{fill:#916F72;}
	.st10{fill:#FBE29F;}
	.st11{fill:#FEB4BF;}
	.st12{fill:#323D40;}
	.st13{fill:#FEDADF;}
	.st14{fill:#313D40;}
</style>
<g class="st0">
	<path class="st1" d="M-29.5,20.6c0.8,0.6,1.5,0.9,2.2,0.9c0.7,0,1.1-0.3,1.1-0.8c0-0.4-0.3-0.7-1.3-1.1l-0.4-0.2
		c-1.7-0.7-2.4-1.5-2.4-2.8c0-1.7,1.4-3,3.5-3c1.1,0,2.3,0.3,3,0.9l-1,1.8c-0.6-0.4-1.2-0.6-1.8-0.6c-0.7,0-1.1,0.3-1.1,0.8
		c0,0.4,0.3,0.7,1.5,1.2l0.3,0.1c1.7,0.8,2.4,1.5,2.4,2.8c0,1.8-1.3,3-3.4,3c-1.3,0-2.8-0.5-3.6-1.3L-29.5,20.6z"/>
	<path class="st1" d="M-22.4,9.9h2.4v4.5c0.6-0.5,1.4-0.8,2.4-0.8c2.2,0,3.7,1.5,3.7,3.8v5.9h-2.4v-5.5c0-1.1-0.8-1.9-1.8-1.9
		c-1,0-1.9,0.8-1.9,1.9v5.6h-2.4V9.9z"/>
	<path class="st1" d="M-11,9.7c0.9,0,1.6,0.6,1.6,1.5c0,0.8-0.7,1.5-1.6,1.5c-0.9,0-1.5-0.6-1.5-1.5C-12.5,10.3-11.9,9.7-11,9.7z
		 M-12.2,13.9h2.4v9.3h-2.4V13.9z"/>
	<path class="st1" d="M-6.9,16h-1.6v-2.1h1.6v-0.8c0-2.3,1.1-3.5,3.3-3.5c0.8,0,1.4,0.1,2.1,0.5l-0.9,2C-2.7,12-3,11.9-3.3,11.9
		c-0.8,0-1.2,0.5-1.2,1.3v0.8h2.2V16h-2.2v7.2h-2.4V16z"/>
	<path class="st1" d="M-1.5,13.9h1.7v-2.7h2.4v2.7h2.1V16H2.6v7.2H0.1V16h-1.7V13.9z"/>
	<path class="st1" d="M11,20.6c0.8,0.6,1.5,0.9,2.2,0.9s1.1-0.3,1.1-0.8c0-0.4-0.3-0.7-1.3-1.1l-0.4-0.2c-1.7-0.7-2.4-1.5-2.4-2.8
		c0-1.7,1.4-3,3.5-3c1.1,0,2.3,0.3,3,0.9l-1,1.8c-0.6-0.4-1.2-0.6-1.8-0.6c-0.7,0-1.1,0.3-1.1,0.8c0,0.4,0.3,0.7,1.5,1.2l0.3,0.1
		c1.7,0.8,2.4,1.5,2.4,2.8c0,1.8-1.3,3-3.4,3c-1.3,0-2.8-0.5-3.6-1.3L11,20.6z"/>
	<path class="st1" d="M22.9,23.6c-2.9,0-5.2-2.2-5.2-4.9c0-2.7,2.3-4.9,5.2-4.9c1.9,0,3.6,0.9,4.4,2.5l-2.2,1.2
		c-0.4-0.9-1.3-1.4-2.3-1.4c-1.5,0-2.6,1.2-2.6,2.7s1.2,2.7,2.6,2.7c1.1,0,2.1-0.7,2.4-1.7l2.2,1.1C26.8,22.4,25,23.6,22.9,23.6z"/>
	<path class="st1" d="M28.6,9.9h2.4v4.5c0.6-0.5,1.4-0.8,2.4-0.8c2.2,0,3.7,1.5,3.7,3.8v5.9h-2.4v-5.5c0-1.1-0.8-1.9-1.8-1.9
		c-1,0-1.9,0.8-1.9,1.9v5.6h-2.4V9.9z"/>
	<path class="st1" d="M43.8,23.6c-3,0-5.3-2.1-5.3-4.9c0-2.8,2.2-5,5-5c2.7,0,4.7,2.1,4.7,4.9c0,0.3,0,0.6-0.1,1h-7.1
		c0.2,1.1,1.2,1.9,2.6,1.9c1,0,1.6-0.3,2.3-1.2l1.9,1.4C47,22.9,45.5,23.6,43.8,23.6z M45.7,17.6c-0.1-1.1-1-1.8-2.2-1.8
		c-1.2,0-2,0.8-2.3,1.8H45.7z"/>
	<path class="st1" d="M54.1,13.7c1.1,0,2.1,0.4,2.9,1V9.9h2.4v13.4h-2.3v-0.9c-0.8,0.7-1.9,1.1-3.1,1.1c-2.7,0-4.9-2.2-4.9-4.9
		C49.2,15.9,51.4,13.7,54.1,13.7z M54.4,21.3c1.4,0,2.6-1.2,2.6-2.7s-1.2-2.7-2.6-2.7c-1.5,0-2.6,1.2-2.6,2.7S52.9,21.3,54.4,21.3z"
		/>
	<path class="st1" d="M69.5,13.9l0,5.7c0,2.3-1.8,4-4.3,4c-2.5,0-4.1-1.6-4.1-4v-5.7h2.4v5.3c0,1.3,0.7,2.1,1.7,2.1
		c1.1,0,1.8-0.9,1.8-2.1v-5.3H69.5z"/>
	<path class="st1" d="M71.2,9.9h2.4v13.4h-2.4V9.9z"/>
	<path class="st1" d="M80.2,23.6c-3,0-5.3-2.1-5.3-4.9c0-2.8,2.2-5,5-5c2.7,0,4.7,2.1,4.7,4.9c0,0.3,0,0.6-0.1,1h-7.1
		c0.2,1.1,1.2,1.9,2.6,1.9c1,0,1.6-0.3,2.3-1.2l1.9,1.4C83.4,22.9,82,23.6,80.2,23.6z M82.1,17.6c-0.1-1.1-1-1.8-2.2-1.8
		c-1.2,0-2,0.8-2.3,1.8H82.1z"/>
	<path class="st1" d="M86,13.9h2.3v0.8c0.5-0.7,1.3-1.1,2.2-1.1c0.4,0,0.8,0.1,1.2,0.3l-1,2.3C90.5,16.1,90.3,16,90,16
		c-1,0-1.6,0.8-1.6,2.2v5.1H86V13.9z"/>
</g>
<g>
	<path class="st2" d="M12.4,8.9c0.8,0.7,1.5,1.6,1.9,2.6c0.1,0.2,0.2,0.3,0.4,0.2c0.7-0.1,1.4-0.1,2.2,0c0.1,0,0.1,0.1,0.1,0.2
		c-0.1,0.1-0.1,0.2-0.2,0.3c-0.8,0.8-1.4,1.8-1.9,2.8c-0.7,1.4-1.2,2.8-1.5,4.3c0,0.2,0,0.4-0.1,0.6c0,0,0,0.1-0.1,0.1
		c-0.7,0.3-1.4,0.8-1.9,1.3C10.5,22,9.9,22.9,9.6,24c0,0.1,0,0.3-0.2,0.2c-0.8-0.4-1.6-0.6-2.4-0.8c-0.2-0.1-0.5-0.1-0.7-0.2
		c-0.6-0.3-0.8-0.8-0.7-1.4c0-0.1,0-0.2-0.1-0.3c-0.4-0.2-0.6-0.5-0.7-0.9c0-0.2,0-0.4,0-0.5c0.1-0.9,0.5-1.7,0.9-2.5
		C5.9,17.3,6,17,6.2,16.8c0.1-0.1,0.1-0.2,0-0.4c-0.6-0.8-1.1-1.7-1.3-2.7c0-0.1-0.1-0.2,0-0.3c0-0.1,0.1-0.1,0.1-0.2
		c0.7-0.8,1.5-1.5,2.3-2.1c0.1,0,0.1-0.1,0.2,0c0,0.3-0.1,0.5-0.1,0.8c-0.1,0.9,0.1,1.7,0.6,2.5c0.1,0.1,0.1,0.1,0.2,0
		c0.3-0.3,0.6-0.5,1-0.8c0.7-0.5,1.5-0.9,2.3-1.2c0.2-0.1,0.2-0.1,0.1-0.3c-0.5-0.8-1.2-1.5-2-2c-0.1,0-0.2-0.1-0.2-0.2
		c0.2-0.2,0.5-0.3,0.7-0.4c0.6-0.2,1.2-0.4,1.8-0.6C12.1,8.9,12.2,8.9,12.4,8.9z"/>
	<path class="st3" d="M12.4,8.9c-1,0.2-2,0.6-2.9,1c-0.1,0.1-0.2,0-0.2,0C9,9.8,8.7,9.7,8.5,9.6c-0.1-0.1-0.2,0-0.3,0.1
		C8,10,7.8,10.4,7.7,10.8c0,0.1,0,0.2-0.2,0.3c-0.4,0.2-0.8,0.6-1.1,0.9c-0.5,0.4-1,0.9-1.5,1.4c-0.1-0.1,0-0.2-0.1-0.3
		c0-0.1,0-0.2,0-0.3c0-0.1,0-0.1,0-0.2c0,0,0-0.1,0-0.1c0,0,0-0.1,0-0.1c0-0.2,0-0.4,0-0.6c0-0.1,0-0.2,0-0.3c0-0.1,0-0.1,0-0.2
		c0.1-0.2,0.1-0.5,0.2-0.8c0.3-1.3,0.9-2.4,1.8-3.3c0.5-0.5,1.1-0.7,1.8-0.5C10,7.2,11.2,7.9,12.4,8.9C12.3,8.9,12.4,8.9,12.4,8.9z"
		/>
	<path class="st4" d="M4.8,11.6c0.1,0.1,0.1,0.2,0,0.3C4.8,11.8,4.8,11.7,4.8,11.6z"/>
	<path class="st5" d="M4.8,12.5C4.8,12.5,4.8,12.5,4.8,12.5C4.8,12.6,4.8,12.6,4.8,12.5C4.8,12.5,4.8,12.5,4.8,12.5z"/>
	<path class="st6" d="M4.8,12.6C4.8,12.6,4.8,12.6,4.8,12.6C4.8,12.6,4.8,12.6,4.8,12.6C4.8,12.6,4.8,12.6,4.8,12.6z"/>
	<path class="st7" d="M13.2,19.8c0-0.7,0.2-1.3,0.4-2c0.4-1.4,1-2.7,1.7-3.9c0.4-0.7,1-1.4,1.5-2c0-0.1,0.1-0.1,0-0.2
		c0.2,0,0.3,0,0.5,0c0.2,0,0.2,0,0.3-0.2c0.4-0.9,1-1.7,1.8-2.5C19.5,9,19.6,9,19.6,8.9c0.1,0,0.2,0,0.3,0c0.9,0.2,1.7,0.5,2.5,0.9
		c0.1,0,0.1,0.1,0.2,0.1c0,0.1-0.1,0.1-0.2,0.2c-0.8,0.5-1.5,1.1-2,1.9c0,0-0.1,0.1-0.1,0.1c-0.1,0.1,0,0.2,0.1,0.2
		c0.8,0.3,1.5,0.7,2.2,1.2c0.3,0.2,0.7,0.5,1,0.8c0.1,0.1,0.2,0.1,0.3,0c0.3-0.5,0.5-1.1,0.6-1.6c0.1-0.5,0-0.9-0.1-1.4
		c0-0.1,0-0.1,0-0.2c0.1-0.1,0.2,0,0.2,0.1c0.6,0.4,1.2,1,1.7,1.5c0.2,0.2,0.5,0.5,0.7,0.7c-0.2,1.2-0.7,2.2-1.5,3.2
		c-0.1,0.1,0,0.2,0,0.2c0.6,0.9,1,1.8,1.3,2.8c0.1,0.4,0.2,0.7,0.2,1.1c-0.1,0.4-0.3,0.7-0.7,0.9c-0.1,0.1-0.1,0.1-0.1,0.2
		c0.2,0.6-0.1,1.2-0.7,1.5c-0.5,0.2-1,0.3-1.5,0.4c-0.5,0.2-1.1,0.4-1.6,0.6c-0.1,0-0.1-0.1-0.2-0.2c-0.1-0.4-0.3-0.7-0.4-1.1
		c-1-2-2.7-3.2-4.9-3.6c-1.2-0.2-2.4-0.1-3.5,0.3C13.5,19.8,13.4,19.9,13.2,19.8z"/>
	<path class="st8" d="M13.2,19.8c0.5-0.2,1-0.4,1.5-0.4c2-0.4,3.8,0.1,5.4,1.3c1.1,0.9,1.9,2,2.4,3.4c0,0.1,0,0.2,0.1,0.2
		c-0.8,0.3-1.4,0.9-2.2,1.2c-1,0.5-2,0.7-3.1,0.9c-0.6,0.1-1.3,0.1-1.9,0.1c-0.4,0-0.8-0.1-1.2-0.1c-0.1,0-0.2,0-0.4-0.1
		c-0.2-0.6-0.4-1.2-0.5-1.9c-0.2-1-0.3-2-0.3-3c0-0.4,0-0.9,0.1-1.3C13.1,19.9,13.2,19.9,13.2,19.8C13.2,19.8,13.2,19.8,13.2,19.8z"
		/>
	<path class="st9" d="M27.1,13.3c-0.2-0.1-0.3-0.3-0.5-0.4c-0.7-0.7-1.4-1.3-2.1-1.8c-0.1,0-0.1-0.2-0.1-0.2
		c-0.1-0.4-0.3-0.7-0.5-1.1c-0.1-0.1-0.2-0.2-0.3-0.1c-0.2,0.1-0.5,0.2-0.7,0.3c-0.1,0-0.1,0.1-0.2,0c-0.6-0.3-1.3-0.6-2-0.8
		C20.3,9.1,20,9,19.6,8.9c0.6-0.6,1.3-1,2-1.4c0.6-0.3,1.1-0.5,1.8-0.7c0.7-0.2,1.4,0,1.9,0.5c1.1,1.2,1.7,2.5,1.9,4.1
		C27.3,12.1,27.2,12.7,27.1,13.3z"/>
	<path class="st10" d="M13.2,19.8c0,0.6-0.1,1.1-0.1,1.7c0,1.5,0.2,3,0.7,4.5c0,0.1,0.1,0.1,0,0.2c-1.2-0.2-2.4-0.7-3.4-1.4
		c-0.3-0.2-0.7-0.4-1-0.6c0.1,0,0.1-0.1,0.1-0.2c0.3-1.1,0.9-2.1,1.8-2.9C11.9,20.6,12.5,20.1,13.2,19.8z"/>
	<path class="st11" d="M7.5,11.1c0.2-0.5,0.4-1,0.7-1.4c0.1-0.2,0.2-0.2,0.4-0.1c0.3,0.1,0.6,0.3,0.9,0.4c0.5,0.3,1,0.7,1.4,1.1
		c0.3,0.4,0.6,0.7,0.9,1.2c0.1,0.1,0.1,0.1-0.1,0.2c-1.3,0.5-2.4,1.1-3.4,2c-0.1,0.1-0.2,0.1-0.2,0c-0.5-0.8-0.7-1.7-0.6-2.7
		C7.4,11.5,7.5,11.3,7.5,11.1z"/>
	<path class="st12" d="M11.9,19c0-0.1,0-0.2,0-0.3c0-0.2,0.1-0.3,0.3-0.3c0.2,0,0.3,0.1,0.3,0.3c0,0.2,0,0.4,0,0.6
		c0,0.2-0.1,0.3-0.3,0.3c-0.2,0-0.3-0.1-0.3-0.3C11.9,19.2,11.9,19.1,11.9,19C11.9,19,11.9,19,11.9,19z"/>
	<path class="st13" d="M22.6,9.9c0.3-0.1,0.6-0.3,0.9-0.4c0.1-0.1,0.2,0,0.3,0.1c0.3,0.4,0.5,0.9,0.7,1.4c0.1,0.4,0.2,0.8,0.1,1.2
		c0,0.8-0.2,1.5-0.7,2.1c-0.1,0.1-0.1,0.1-0.3,0c-1-0.9-2.1-1.5-3.3-2c-0.2-0.1-0.3-0.1-0.1-0.3c0.6-0.9,1.3-1.6,2.2-2.1
		C22.5,10,22.5,10,22.6,9.9z"/>
	<path class="st12" d="M19.4,19c0-0.1,0-0.2,0-0.3c0-0.2,0.1-0.3,0.3-0.3c0.2,0,0.3,0.1,0.3,0.3c0,0.2,0,0.4,0,0.6
		c0,0.2-0.2,0.3-0.3,0.3c-0.2,0-0.3-0.1-0.3-0.3C19.4,19.2,19.4,19.1,19.4,19z"/>
	<path class="st14" d="M16.3,21.6c0.1,0.3,0.3,0.6,0.6,0.6c0.3,0,0.5-0.2,0.6-0.5c0-0.3,0.2-0.4,0.4-0.4c0.2,0,0.3,0.2,0.3,0.5
		c-0.1,0.5-0.3,0.8-0.7,1c-0.4,0.2-0.9,0.1-1.2-0.1c-0.1-0.1-0.2-0.1-0.3,0c-0.4,0.3-0.8,0.3-1.2,0.1c-0.4-0.2-0.7-0.6-0.7-1
		c0-0.2,0.1-0.4,0.3-0.4c0.2,0,0.3,0.1,0.4,0.3c0.1,0.4,0.3,0.6,0.6,0.6c0.3,0,0.5-0.2,0.6-0.6c0,0,0,0,0-0.1c0,0,0.1,0,0.1,0
		c0.1,0.1,0.2,0.1,0.3,0C16.2,21.5,16.3,21.5,16.3,21.6z"/>
	<path class="st3" d="M16.3,21.6c0,0-0.1-0.1-0.1,0c-0.2,0.1-0.3,0.1-0.4,0c0,0-0.1,0-0.1,0c-0.1-0.1-0.3-0.2-0.5-0.3
		c-0.5-0.3-0.5-0.7,0-1c0.5-0.3,1-0.3,1.6,0c0.5,0.2,0.5,0.7,0,0.9c-0.1,0.1-0.2,0.2-0.4,0.2C16.4,21.5,16.3,21.5,16.3,21.6z"/>
</g>
</svg>
